<svg xmlns="http://www.w3.org/2000/svg" width="595.281" height="841.891" viewBox="0 0 595.281 841.891"><path fill="#D9D9D4" d="M577.4 639.158L464.546 532.334a253.37 253.37 0 0 0 47.115-155.015 251.761 251.761 0 0 0-79.777-176.693c-49.428-46.413-113.391-69.785-181.359-68.753a251.765 251.765 0 0 0-176.693 79.82A251.762 251.762 0 0 0 5.12 393.01c2.106 67.556 30.433 130.321 79.82 176.734 49.386 46.413 114.588 70.445 181.317 68.712a250.943 250.943 0 0 0 140.438-48.024l114.547 108.477a40.465 40.465 0 0 0 28.699 11.108h.66a40.71 40.71 0 0 0 28.615-12.884c15.469-16.526 14.657-42.45-1.816-57.975zM141.057 509.994a170.291 170.291 0 0 1-53.97-119.544c-1.445-45.67 15.072-89.192 46.455-122.599 31.383-33.406 73.874-52.566 119.543-54.012l1.899-.041a170.252 170.252 0 0 1 120.699 46.537 170.118 170.118 0 0 1 54.012 119.544c2.826 94.569-71.436 173.578-165.998 176.61a168.6 168.6 0 0 1-122.64-46.495z"/></svg>